<?xml version="1.0" encoding="UTF-8" standalone="no"?>
<svg
   xmlns:dc="http://purl.org/dc/elements/1.1/"
   xmlns:cc="http://creativecommons.org/ns#"
   xmlns:rdf="http://www.w3.org/1999/02/22-rdf-syntax-ns#"
   xmlns:svg="http://www.w3.org/2000/svg"
   xmlns="http://www.w3.org/2000/svg"
   xmlns:xlink="http://www.w3.org/1999/xlink"
   version="1.1"
   id="svg4168"
   viewBox="0 0 1024.000021 1024.000036"
   height="1024"
   width="1024">
  <defs
     id="defs4170">
    <linearGradient
       id="linearGradient4951">
      <stop
         id="stop4953"
         offset="0"
         style="stop-color:#f42121;stop-opacity:1" />
      <stop
         style="stop-color:#a05a2c;stop-opacity:1"
         offset="0.0299999993"
         id="stop4955" />
      <stop
         style="stop-color:#a05a2c;stop-opacity:1"
         offset="0.6987661123"
         id="stop4957" />
      <stop
         id="stop4959"
         offset="0.778149128"
         style="stop-color:#acd600;stop-opacity:1" />
      <stop
         id="stop4961"
         offset="0.8395389915"
         style="stop-color:#acd600;stop-opacity:1" />
      <stop
         style="stop-color:#f42121;stop-opacity:1"
         offset="0.8776542544"
         id="stop4963" />
      <stop
         id="stop4965"
         offset="1"
         style="stop-color:#f42121;stop-opacity:1" />
    </linearGradient>
    <linearGradient
       id="linearGradient4921">
      <stop
         id="stop4923"
         offset="0"
         style="stop-color:#a05a2c;stop-opacity:1" />
      <stop
         style="stop-color:#a05a2c;stop-opacity:1"
         offset="0.0299999993"
         id="stop4925" />
      <stop
         style="stop-color:#a05a2c;stop-opacity:1"
         offset="0.5465017557"
         id="stop4927" />
      <stop
         id="stop4929"
         offset="0.5765017271"
         style="stop-color:#acd600;stop-opacity:1" />
      <stop
         id="stop4931"
         offset="0.8395389915"
         style="stop-color:#acd600;stop-opacity:1" />
      <stop
         style="stop-color:#f42121;stop-opacity:1"
         offset="0.8776542544"
         id="stop4933" />
      <stop
         id="stop4935"
         offset="1"
         style="stop-color:#f42121;stop-opacity:1" />
    </linearGradient>
    <linearGradient
       id="linearGradient4897">
      <stop
         style="stop-color:#f42121;stop-opacity:1"
         offset="0"
         id="stop4899" />
      <stop
         id="stop4901"
         offset="0.0299999993"
         style="stop-color:#a05a2c;stop-opacity:1" />
      <stop
         id="stop4903"
         offset="0.5465017557"
         style="stop-color:#a05a2c;stop-opacity:1" />
      <stop
         style="stop-color:#acd600;stop-opacity:1"
         offset="0.5765017271"
         id="stop4905" />
      <stop
         style="stop-color:#acd600;stop-opacity:1"
         offset="0.8395389915"
         id="stop4907" />
      <stop
         id="stop4909"
         offset="0.8776542544"
         style="stop-color:#f42121;stop-opacity:1" />
      <stop
         style="stop-color:#f42121;stop-opacity:1"
         offset="1"
         id="stop4911" />
    </linearGradient>
    <linearGradient
       gradientTransform="matrix(3.751030686,3.751030686,-1.182841307,1.182841307,942.0202243,-511.3180658)"
       gradientUnits="userSpaceOnUse"
       y2="485.0942993"
       x2="-0.5781251192"
       y1="285.0992737"
       x1="-0.5781251192"
       id="linearGradient4881"
       xlink:href="#linearGradient4921" />
    <linearGradient
       y2="485.0942993"
       x2="-0.5781251192"
       y1="285.0992737"
       x1="-0.5781251192"
       gradientTransform="matrix(3.751030686,3.751030686,-1.182841307,1.182841307,705.457817,-274.7556584)"
       gradientUnits="userSpaceOnUse"
       id="linearGradient4915"
       xlink:href="#linearGradient4897" />
    <linearGradient
       y2="485.0942993"
       x2="-0.5781251192"
       y1="285.0992737"
       x1="-0.5781251192"
       gradientTransform="matrix(3.751030686,3.751030686,-1.182841307,1.182841307,468.8954512,-38.19329284)"
       gradientUnits="userSpaceOnUse"
       id="linearGradient4919"
       xlink:href="#linearGradient4951" />
    <linearGradient
       y2="485.0942993"
       x2="-0.5781251192"
       y1="285.0992737"
       x1="-0.5781251192"
       gradientTransform="matrix(-3.751030686,3.751030686,1.182841307,1.182841307,-29.94935124,-511.581599)"
       gradientUnits="userSpaceOnUse"
       id="linearGradient4988"
       xlink:href="#linearGradient4921" />
    <linearGradient
       y2="485.0942993"
       x2="-0.5781251192"
       y1="285.0992737"
       x1="-0.5781251192"
       gradientTransform="matrix(-3.751030686,3.751030686,1.182841307,1.182841307,206.613056,-275.0191916)"
       gradientUnits="userSpaceOnUse"
       id="linearGradient4990"
       xlink:href="#linearGradient4897" />
    <linearGradient
       y2="485.0942993"
       x2="-0.5781251192"
       y1="285.0992737"
       x1="-0.5781251192"
       gradientTransform="matrix(-3.751030686,3.751030686,1.182841307,1.182841307,443.1754218,-38.45682606)"
       gradientUnits="userSpaceOnUse"
       id="linearGradient4992"
       xlink:href="#linearGradient4951" />
  </defs>
  <metadata
     id="metadata4173">
    <rdf:RDF>
      <cc:Work
         rdf:about="">
        <dc:format>image/svg+xml</dc:format>
        <dc:type
           rdf:resource="http://purl.org/dc/dcmitype/StillImage" />
        <dc:title></dc:title>
      </cc:Work>
    </rdf:RDF>
  </metadata>
  <g
     transform="translate(55.96419141,113.5183023)"
     id="layer1">
    <path
       id="path4818"
       d="M 839.4093701,-16.89270754 A 14.45739004,14.45739004 0 0 0 829.4709082,-12.51827862 L 738.6544489,78.29818069 C 746.8619043,84.74590738 753.3813787,89.84540735 761.5693797,96.27399707 L 849.9162818,7.927094938 A 14.45739004,14.45739004 0 0 0 849.904988,-12.81567961 14.45739004,14.45739004 0 0 0 839.4093701,-16.89270754 Z M 225.2914866,591.6611432 160.3677319,656.5848977 A 14.45739004,14.45739004 0 0 0 160.3677319,677.0302713 C 185.2580994,701.9204553 185.2580994,741.8347051 160.3677319,766.7248892 135.4775479,791.6152567 95.55953354,791.6152565 70.6693495,766.7248892 45.77898216,741.8347049 45.77898216,701.9204553 70.6693495,677.0302713 A 14.45739004,14.45739004 0 1 0 50.22774066,656.5848977 C 14.28863349,692.5237406 14.28863349,751.2314202 50.22774066,787.1702625 86.16658299,823.1093697 144.8742633,823.1093699 180.8131055,787.1702625 213.2538141,754.7297933 216.1236498,703.8930994 189.9986535,667.8409587 L 242.4842725,615.3553395 C 236.6748585,607.338309 231.0087202,599.5328361 225.2914866,591.6611432 Z"
       style="color:#000000;font-style:normal;font-variant:normal;font-weight:normal;font-stretch:normal;font-size:medium;line-height:normal;font-family:sans-serif;text-indent:0;text-align:start;text-decoration:none;text-decoration-line:none;text-decoration-style:solid;text-decoration-color:#000000;letter-spacing:normal;word-spacing:normal;text-transform:none;direction:ltr;block-progression:tb;writing-mode:lr-tb;baseline-shift:baseline;text-anchor:start;white-space:normal;clip-rule:nonzero;display:inline;overflow:visible;visibility:visible;opacity:1;isolation:auto;mix-blend-mode:normal;color-interpolation:sRGB;color-interpolation-filters:linearRGB;solid-color:#000000;solid-opacity:1;fill:#a7bdc5;fill-opacity:1;fill-rule:nonzero;stroke:none;stroke-width:15;stroke-linecap:round;stroke-linejoin:round;stroke-miterlimit:4;stroke-dasharray:none;stroke-dashoffset:0;stroke-opacity:1;color-rendering:auto;image-rendering:auto;shape-rendering:auto;text-rendering:auto;enable-background:accumulate" />
    <path
       id="rect4852"
       d="M 808.1411672,29.25617021 C 770.5395817,-8.345415286 709.4508015,-8.345415286 671.849216,29.25617021 648.789669,52.31571724 639.9891801,84.19137234 645.2190465,114.1351774 A 9.638260025,9.638260025 0 0 1 628.9092655,122.6081711 L 603.7032403,97.40214591 C 600.8536529,94.55255834 598.5540632,92.43919274 596.4467587,90.49171817 592.7294411,87.05746147 586.6706851,87.17701791 583.0917446,90.75525139 L 535.7249676,138.1220284 C 532.1467353,141.7009681 532.0271777,147.7597256 535.4614344,151.4770424 537.4089071,153.5843452 539.5222742,155.8839357 542.3718624,158.7335239 L 550.8315464,167.1932079 A 9.638260025,9.638260025 0 0 1 540.7826768,183.0877245 C 528.857565,178.8398377 516.6241588,175.6569064 504.1595388,173.8507505 502.476462,173.6074679 500.7920522,173.9301227 499.2695327,174.5774631 L 493.7699394,180.0770564 C 492.7740896,183.1014717 493.2615977,187.4971547 495.960726,190.2004607 L 528.638851,222.8785857 614.518752,308.7584866 647.191553,341.4312876 C 649.8969762,344.1351004 654.2999795,344.6217218 657.3256048,343.622074 L 662.8145503,338.1331288 C 663.4641318,336.6086159 663.7876188,334.9210582 663.5439251,333.2351368 661.737944,320.7710817 658.5545985,308.5368402 654.3069511,296.6119988 A 9.638260025,9.638260025 0 0 1 670.2014677,286.5631292 L 678.6638136,295.0254751 C 681.5134017,297.8750632 683.8129919,299.9884302 685.9202952,301.9359032 689.6376117,305.3701593 695.6963699,305.2506019 699.2753091,301.6723698 L 746.6420861,254.3055928 C 750.2203191,250.7266529 750.3398756,244.667896 746.9056195,240.950579 744.9581443,238.8432739 742.8447793,236.5436849 739.9951915,233.6940971 L 714.7891665,208.4880721 A 9.638260025,9.638260025 0 0 1 723.2621602,192.1782912 C 753.2059649,197.4081574 785.0816202,188.6076685 808.1411672,165.5481214 845.7427527,127.9465359 845.7427531,66.85775609 808.1411672,29.25617021 Z"
       style="opacity:1;fill:url(#linearGradient4881);fill-opacity:1;stroke:none;stroke-width:15;stroke-linecap:round;stroke-linejoin:round;stroke-miterlimit:4;stroke-dasharray:none;stroke-dashoffset:0;stroke-opacity:1" />
    <path
       id="rect4913"
       d="M 528.6404456,222.8802126 A 9.638260025,9.638260025 0 0 1 520.1664012,239.1883249 C 511.6370157,237.6986162 502.954754,237.3870682 494.3602816,238.1794205 494.3794564,238.1965774 494.3975837,238.2149534 494.4167502,238.2321244 495.232024,238.9625183 496.0447226,239.697392 496.8448971,240.4532201 496.8663231,240.4732994 496.8874797,240.4933556 496.9088947,240.5134532 497.7492789,241.3083782 498.5854653,242.1072029 499.4085684,242.9303063 516.2024662,259.7242037 527.1222124,280.1779794 532.566891,301.7102847 548.1406481,289.0798249 570.7871252,289.4724993 585.9221255,302.5911937 A 14.45739004,14.45739004 0 0 1 585.9334192,302.5987229 14.45739004,14.45739004 0 0 1 587.0853774,303.4495154 14.45739004,14.45739004 0 0 1 587.096671,303.4570446 14.45739004,14.45739004 0 0 1 588.1582795,304.4207742 L 588.162044,304.4245388 A 14.45739004,14.45739004 0 0 0 588.1658087,304.4283033 L 598.1381516,314.4006462 A 9.638260025,9.638260025 0 0 1 614.5177908,308.7575576 L 528.6404456,222.8802126 Z M 266.3365808,410.3331546 C 265.0814246,410.3516106 263.8494262,410.6532668 262.7075365,411.1387724 L 257.2075014,416.6388075 C 256.2116516,419.6632228 256.699352,424.0584272 259.3984804,426.7617331 L 292.0749381,459.4419554 377.9560478,545.3193005 410.628741,577.9919936 C 413.3341641,580.695807 417.7373353,581.1826204 420.7629602,580.1829728 L 426.2517017,574.6942313 C 426.9012832,573.1697185 427.2257217,571.4824486 426.9820282,569.7965272 426.4523435,566.1408864 425.790734,562.5084306 425.0319814,558.8943358 L 379.3677612,513.2301153 A 14.45739004,14.45739004 0 0 1 379.3602319,513.2225863 14.45739004,14.45739004 0 0 1 378.4416771,512.2061526 14.45739004,14.45739004 0 0 1 377.5871199,511.0541946 C 364.412029,495.9201991 363.9999273,473.2284148 376.6459778,457.6311978 355.1134191,452.1865591 334.6600711,441.2669467 317.8659995,424.4728753 316.9376428,423.5445186 316.0329707,422.6035033 315.1404516,421.6532132 315.1252534,421.6369441 315.1104646,421.6205492 315.0952768,421.6042739 314.2185355,420.6697884 313.3663212,419.7206177 312.5240762,418.7657889 A 9.638260025,9.638260025 0 0 1 304.2194374,419.6504626 C 292.2943256,415.4025758 280.0623314,412.2183668 267.5977115,410.4122105 267.1769423,410.3513901 266.7549663,410.3270027 266.3365808,410.3331546 Z"
       style="opacity:1;fill:url(#linearGradient4915);fill-opacity:1;stroke:none;stroke-width:15;stroke-linecap:round;stroke-linejoin:round;stroke-miterlimit:4;stroke-dasharray:none;stroke-dashoffset:0;stroke-opacity:1" />
    <path
       id="rect4917"
       d="M 292.0749381,459.4419554 A 9.638260025,9.638260025 0 0 1 283.6046583,475.7500679 C 253.660853,470.5202013 221.7844709,479.3210811 198.724924,502.380628 161.1233385,539.9822135 161.1233381,601.0714933 198.724924,638.6730792 236.3265095,676.2746647 297.4157897,676.2746647 335.0173752,638.6730792 358.0769221,615.6135323 366.8778015,583.73715 361.6479355,553.7933449 A 9.638260025,9.638260025 0 0 1 377.9560478,545.3193005 L 292.0749381,459.4419554 Z"
       style="opacity:1;fill:url(#linearGradient4919);fill-opacity:1;stroke:none;stroke-width:15;stroke-linecap:round;stroke-linejoin:round;stroke-miterlimit:4;stroke-dasharray:none;stroke-dashoffset:0;stroke-opacity:1" />
    <path
       id="path5027"
       d="M 177.6207511,18.48294604 C 195.8861437,19.75815867 213.8016189,27.38198342 227.8175122,41.39787677 246.7400095,60.32037382 253.866033,86.27399014 249.5729557,110.8541722 A 17.54163398,17.54163398 0 0 0 249.5729557,110.865466 C 247.4774785,122.9083014 254.3832948,134.7432989 263.8218488,139.6455949 273.2604031,144.5478911 286.9101555,143.391687 295.5571645,134.7516554 A 17.54163398,17.54163398 0 0 0 295.560929,134.7478909 L 320.7684821,109.5441023 A 17.54163398,17.54163398 0 0 0 320.7722466,109.5441023 C 321.2525303,109.0638187 321.5788001,108.7838682 322.0258482,108.3469695 L 358.4894621,144.8105834 C 358.0540067,145.2563448 357.7747778,145.5855009 357.2960939,146.064185 L 348.833343,154.5269358 C 339.5924752,163.7678574 339.085256,178.7871415 345.0838325,188.2725309 351.0818199,197.7569893 364.8639806,203.7332828 377.1730175,199.3478926 379.4270026,198.5449925 381.7101006,197.9800707 383.9755935,197.2660861 L 371.0292411,210.216203 A 17.54163398,17.54163398 0 0 0 371.0254766,210.2199675 C 362.3854444,218.8669765 361.2292408,232.5167287 366.1315368,241.9552831 371.0338331,251.3938373 382.8688303,258.2996538 394.911666,256.2041762 A 17.54163398,17.54163398 0 0 0 394.9229595,256.2041762 C 419.5031424,251.9110988 445.4567579,259.0371223 464.3792552,277.9596195 483.301752,296.8821164 490.4277759,322.8357331 486.1346987,347.4159152 A 17.54163398,17.54163398 0 0 0 486.1346987,347.427209 C 484.0392211,359.4700446 490.9450374,371.3050417 500.3835918,376.2073379 509.8221462,381.1096341 523.4718985,379.9534303 532.1189074,371.3133984 A 17.54163398,17.54163398 0 0 0 532.122672,371.3096338 L 557.3302251,346.1058452 A 17.54163398,17.54163398 0 0 0 557.3339896,346.1058452 C 557.813118,345.6267168 558.1412001,345.344777 558.587591,344.9087122 L 595.0512051,381.3723264 C 594.6159578,381.8180874 594.3361198,382.1514093 593.8578368,382.6296925 L 585.3988505,391.0886786 A 17.54163398,17.54163398 0 0 0 585.395086,391.0924433 C 576.1603407,400.3328846 575.6540755,415.3468052 581.6493399,424.8305093 587.6446043,434.3142135 601.4226166,440.2917647 613.7309957,435.9134001 A 17.54163398,17.54163398 0 0 0 613.7347604,435.9096356 C 615.9887456,435.1067355 618.2718436,434.5418135 620.5373362,433.827829 L 607.590984,446.7779459 A 17.54163398,17.54163398 0 0 0 607.5872193,446.7817105 C 598.9471872,455.4287194 597.7909836,469.0784715 602.6932798,478.5170259 607.5955762,487.9555803 619.4305731,494.861397 631.4734089,492.7659192 A 17.54163398,17.54163398 0 0 0 631.4847025,492.7659192 C 656.064885,488.4728418 682.0185015,495.5988657 700.9409981,514.5213625 728.9717384,542.552103 731.4286197,586.1900229 708.6884808,617.0079853 A 17.54163398,17.54163398 0 0 0 705.5714178,630.6244308 17.54163398,17.54163398 0 0 0 691.9474432,633.7527876 C 661.1298061,656.494156 617.4884336,654.0366827 589.4570557,626.005305 570.5352338,607.0834827 563.4120545,581.1305971 567.7053769,556.5490093 L 567.7016122,556.552774 C 569.8101583,544.5033783 562.9038291,532.6560119 553.4602483,527.7500576 544.0166674,522.8441031 530.3524818,524.00607 521.7061099,532.6590554 L 508.7710512,545.5903495 C 509.4843147,543.3274582 510.0471634,541.0466397 510.8490933,538.7953026 A 17.54163398,17.54163398 0 0 0 510.8528578,538.791538 C 515.2312235,526.4831585 509.2536716,512.7051468 499.769967,506.7098823 490.2862626,500.7146176 475.2723421,501.2208819 466.031901,510.4556281 A 17.54163398,17.54163398 0 0 0 466.031901,510.4593927 L 457.5691501,518.9183789 A 17.54163398,17.54163398 0 0 0 457.5653854,518.9183789 C 457.0862568,519.3975077 456.7581753,519.679447 456.3117841,520.1155119 L 419.8481701,483.6518978 C 420.2836252,483.2061368 420.5628545,482.8769804 421.0415384,482.3982964 L 446.2490915,457.1907433 A 17.54163398,17.54163398 0 0 0 446.2490915,457.1869788 C 454.892234,448.5388723 456.0480113,434.879896 451.143031,425.4403694 446.2380508,416.000843 434.4001319,409.0972352 422.3553729,411.1990055 A 17.54163398,17.54163398 0 0 0 422.3516084,411.1990055 C 397.7714265,415.4920826 371.8178096,408.3660589 352.8953129,389.443562 333.9728157,370.521065 326.8467925,344.5674494 331.1398694,319.9872665 333.2201873,308.0833732 326.5233629,296.3703326 317.2448456,291.3765432 307.9663284,286.3827535 294.5063293,287.2473445 285.7165814,295.5401562 A 17.54163398,17.54163398 0 0 0 285.4681199,295.7773241 L 285.2685976,295.9730817 A 17.54163398,17.54163398 0 0 0 285.1481314,296.0897832 L 272.2093083,309.0286065 C 272.9222103,306.7668617 273.4858707,304.487527 274.2873503,302.2373243 L 274.2873503,302.2335596 C 278.6727411,289.924523 272.6964472,276.1423624 263.2119888,270.1443748 253.7265992,264.1457981 238.7073151,264.6530171 229.4663935,273.8938852 L 221.0036427,282.356636 C 220.5237604,282.8365184 220.1933245,283.1170782 219.7462766,283.553769 L 183.2826626,247.0939196 C 183.720188,246.6462145 183.9987567,246.3175924 184.4797954,245.8365535 L 209.6873486,220.6290003 A 17.54163398,17.54163398 0 0 0 209.6873486,220.6252358 C 218.3304916,211.9771294 219.4862685,198.3181533 214.5812881,188.8786266 209.6763079,179.4390998 197.8383893,172.5354918 185.7936299,174.6372626 A 17.54163398,17.54163398 0 0 0 185.7898654,174.6372626 C 161.2096835,178.9303396 135.2560668,171.8043161 116.3335699,152.881819 88.30219185,124.850441 85.8447183,81.20906917 108.5860871,50.39143174 A 17.54163398,17.54163398 0 0 0 111.7031501,36.77875072 17.54163398,17.54163398 0 0 0 125.3308894,33.65039395 C 140.7399297,22.27957799 159.3553582,17.2077334 177.6207511,18.48294604 Z"
       style="color:#000000;font-style:normal;font-variant:normal;font-weight:normal;font-stretch:normal;font-size:medium;line-height:normal;font-family:sans-serif;text-indent:0;text-align:start;text-decoration:none;text-decoration-line:none;text-decoration-style:solid;text-decoration-color:#000000;letter-spacing:normal;word-spacing:normal;text-transform:none;direction:ltr;block-progression:tb;writing-mode:lr-tb;baseline-shift:baseline;text-anchor:start;white-space:normal;clip-rule:nonzero;display:inline;overflow:visible;visibility:visible;opacity:1;isolation:auto;mix-blend-mode:normal;color-interpolation:sRGB;color-interpolation-filters:linearRGB;solid-color:#000000;solid-opacity:1;fill:#ffffff;fill-opacity:1;fill-rule:nonzero;stroke:none;stroke-width:18.2000007629;stroke-linecap:round;stroke-linejoin:round;stroke-miterlimit:4;stroke-dasharray:none;stroke-dashoffset:0;stroke-opacity:1;color-rendering:auto;image-rendering:auto;shape-rendering:auto;text-rendering:auto;enable-background:accumulate" />
    <path
       id="path5025"
       d="M 601.9704826,402.8604855 C 601.9724303,402.8597925 601.9760614,402.8611755 601.9780118,402.8604855 601.9742835,402.8618133 601.9704462,402.862922 601.9667181,402.86425 L 601.9704826,402.8604855 Z"
       style="color:#000000;font-style:normal;font-variant:normal;font-weight:normal;font-stretch:normal;font-size:medium;line-height:normal;font-family:sans-serif;text-indent:0;text-align:start;text-decoration:none;text-decoration-line:none;text-decoration-style:solid;text-decoration-color:#000000;letter-spacing:normal;word-spacing:normal;text-transform:none;direction:ltr;block-progression:tb;writing-mode:lr-tb;baseline-shift:baseline;text-anchor:start;white-space:normal;clip-rule:nonzero;display:inline;overflow:visible;visibility:visible;opacity:1;isolation:auto;mix-blend-mode:normal;color-interpolation:sRGB;color-interpolation-filters:linearRGB;solid-color:#000000;solid-opacity:1;fill:#ffffff;fill-opacity:1;fill-rule:nonzero;stroke:none;stroke-width:18.2000007629;stroke-linecap:round;stroke-linejoin:round;stroke-miterlimit:4;stroke-dasharray:none;stroke-dashoffset:0;stroke-opacity:1;color-rendering:auto;image-rendering:auto;shape-rendering:auto;text-rendering:auto;enable-background:accumulate" />
    <path
       id="path4996"
       d="M 477.8037077,527.0272604 C 477.8023798,527.0309883 477.801271,527.034826 477.7999431,527.0385541 477.8006332,527.0366035 477.7992504,527.0329726 477.7999431,527.0310249 L 477.8037077,527.0272604 Z"
       style="color:#000000;font-style:normal;font-variant:normal;font-weight:normal;font-stretch:normal;font-size:medium;line-height:normal;font-family:sans-serif;text-indent:0;text-align:start;text-decoration:none;text-decoration-line:none;text-decoration-style:solid;text-decoration-color:#000000;letter-spacing:normal;word-spacing:normal;text-transform:none;direction:ltr;block-progression:tb;writing-mode:lr-tb;baseline-shift:baseline;text-anchor:start;white-space:normal;clip-rule:nonzero;display:inline;overflow:visible;visibility:visible;opacity:1;isolation:auto;mix-blend-mode:normal;color-interpolation:sRGB;color-interpolation-filters:linearRGB;solid-color:#000000;solid-opacity:1;fill:#ffffff;fill-opacity:1;fill-rule:nonzero;stroke:none;stroke-width:18.2000007629;stroke-linecap:round;stroke-linejoin:round;stroke-miterlimit:4;stroke-dasharray:none;stroke-dashoffset:0;stroke-opacity:1;color-rendering:auto;image-rendering:auto;shape-rendering:auto;text-rendering:auto;enable-background:accumulate" />
    <path
       style="color:#000000;font-style:normal;font-variant:normal;font-weight:normal;font-stretch:normal;font-size:medium;line-height:normal;font-family:sans-serif;text-indent:0;text-align:start;text-decoration:none;text-decoration-line:none;text-decoration-style:solid;text-decoration-color:#000000;letter-spacing:normal;word-spacing:normal;text-transform:none;direction:ltr;block-progression:tb;writing-mode:lr-tb;baseline-shift:baseline;text-anchor:start;white-space:normal;clip-rule:nonzero;display:inline;overflow:visible;visibility:visible;opacity:1;isolation:auto;mix-blend-mode:normal;color-interpolation:sRGB;color-interpolation-filters:linearRGB;solid-color:#000000;solid-opacity:1;fill:#a7bdc5;fill-opacity:1;fill-rule:nonzero;stroke:none;stroke-width:15;stroke-linecap:round;stroke-linejoin:round;stroke-miterlimit:4;stroke-dasharray:none;stroke-dashoffset:0;stroke-opacity:1;color-rendering:auto;image-rendering:auto;shape-rendering:auto;text-rendering:auto;enable-background:accumulate"
       d="M 62.1641624,-13.07734107 A 14.45739004,14.45739004 0 0 1 82.5999692,-12.78186445 L 751.7029436,656.3211097 A 14.45739004,14.45739004 0 0 1 751.7029436,676.7649026 C 726.812576,701.6550866 726.812576,741.5718589 751.7029436,766.4620429 776.5931276,791.3524104 816.5098999,791.3524102 841.4000839,766.4620429 866.2904512,741.5718587 866.2904512,701.6550866 841.4000839,676.7649026 A 14.45739004,14.45739004 0 1 1 861.8438766,656.3211097 C 897.7829837,692.2599522 897.7829837,750.9669932 861.8438766,786.9058356 825.9050342,822.8449425 767.197993,822.8449427 731.2591509,786.9058356 698.8184422,754.4653661 695.9477575,703.6306462 722.0727538,667.5785055 L 62.15617655,7.6619282 A 14.45739004,14.45739004 0 0 1 62.1641624,-13.07734107 Z"
       id="path4978" />
    <path
       style="opacity:1;fill:url(#linearGradient4988);fill-opacity:1;stroke:none;stroke-width:15;stroke-linecap:round;stroke-linejoin:round;stroke-miterlimit:4;stroke-dasharray:none;stroke-dashoffset:0;stroke-opacity:1"
       d="M 103.9297058,28.99263699 C 141.5312913,-8.608948503 202.6200715,-8.608948503 240.221657,28.99263699 263.281204,52.05218403 272.0816929,83.92783912 266.8518265,113.8716442 A 9.638260025,9.638260025 0 0 0 283.1616075,122.3446379 L 308.3676327,97.13861269 C 311.2172201,94.28902512 313.5168098,92.17565953 315.6241144,90.22818495 319.3414319,86.79392825 325.4001879,86.91348469 328.9791284,90.49171817 L 376.3459054,137.8584952 C 379.9241377,141.4374349 380.0436953,147.4961924 376.6094386,151.2135092 374.6619659,153.320812 372.5485988,155.6204025 369.6990107,158.4699907 L 361.2393266,166.9296747 A 9.638260025,9.638260025 0 0 0 371.2881962,182.8241913 C 383.213308,178.5763045 395.4467142,175.3933732 407.9113342,173.5872173 409.5944111,173.3439347 411.2788208,173.6665895 412.8013403,174.3139299 L 418.3009336,179.8135232 C 419.2967834,182.8379385 418.8092754,187.2336215 416.110147,189.9369274 L 383.432022,222.6150524 297.552121,308.4949534 264.8793201,341.1677544 C 262.1738968,343.8715672 257.7708935,344.3581886 254.7452682,343.3585408 L 249.2563227,337.8695956 C 248.6067412,336.3450827 248.2832542,334.657525 248.5269479,332.9716036 250.332929,320.5075485 253.5162745,308.273307 257.7639219,296.3484656 A 9.638260025,9.638260025 0 0 0 241.8694053,286.299596 L 233.4070594,294.7619419 C 230.5574713,297.61153 228.2578811,299.724897 226.1505778,301.67237 222.4332614,305.1066261 216.3745031,304.9870687 212.795564,301.4088366 L 165.428787,254.0420596 C 161.8505539,250.4631197 161.7309974,244.4043628 165.1652535,240.6870458 167.1127287,238.5797407 169.2260937,236.2801517 172.0756815,233.4305639 L 197.2817065,208.2245389 A 9.638260025,9.638260025 0 0 0 188.8087128,191.914758 C 158.8649081,197.1446241 126.9892528,188.3441352 103.9297058,165.2845882 66.32812029,127.6830027 66.3281199,66.59422287 103.9297058,28.99263699 Z"
       id="path4982" />
    <path
       style="opacity:1;fill:url(#linearGradient4990);fill-opacity:1;stroke:none;stroke-width:15;stroke-linecap:round;stroke-linejoin:round;stroke-miterlimit:4;stroke-dasharray:none;stroke-dashoffset:0;stroke-opacity:1"
       d="M 383.432022,222.6150524 A 9.638260025,9.638260025 0 0 0 391.9050157,238.9248334 C 421.8488212,233.694967 453.7244759,242.4954557 476.7840229,265.5550029 499.8435698,288.6145498 508.6440587,320.4902049 503.4141923,350.4340099 A 9.638260025,9.638260025 0 0 0 519.7239732,358.9070037 L 544.9299984,333.7009784 C 547.779586,330.851391 550.0791756,328.7380253 552.1864801,326.7905507 555.9037977,323.356294 561.9625538,323.4758506 565.5414941,327.0540837 L 612.9082711,374.4208609 C 616.4865034,377.9998004 616.606061,384.0585581 613.1718043,387.7758749 611.2243317,389.8831777 609.1109647,392.1827684 606.2613766,395.0323566 L 597.8016926,403.4920406 A 9.638260025,9.638260025 0 0 0 607.8505619,419.386557 C 619.7756737,415.1386702 632.0090799,411.955739 644.4736999,410.149583 646.1567768,409.9063004 647.8411865,410.2289552 649.3637061,410.8762959 L 654.8632993,416.3758889 C 655.8591491,419.4003042 655.3716411,423.795987 652.6725125,426.499293 L 619.9943875,459.177418 534.1144866,545.0573189 501.4416856,577.7301199 C 498.7362623,580.4339334 494.3332592,580.9205544 491.3076339,579.9209067 L 485.8186885,574.4319611 C 485.169107,572.9074484 484.8456199,571.2198907 485.0893136,569.5339693 486.8952949,557.0699141 490.0786402,544.8356727 494.3262876,532.9108313 A 9.638260025,9.638260025 0 0 0 478.4317712,522.8619619 L 469.9694254,531.3243078 C 467.1198372,534.1738959 464.8202471,536.2872629 462.7129435,538.2347355 458.9956273,541.6689922 452.9368688,541.5494344 449.3579297,537.9712023 L 401.9911525,490.6044253 C 398.4129196,487.0254856 398.2933632,480.9667285 401.7276193,477.2494115 403.6750944,475.1421064 405.7884595,472.8425174 408.6380472,469.9929296 L 433.8440722,444.7869046 A 9.638260025,9.638260025 0 0 0 425.3710785,428.4771237 C 395.4272736,433.7069899 363.5516185,424.906501 340.4920717,401.8469541 317.4325245,378.7874071 308.6320364,346.9117524 313.861902,316.9679471 A 9.638260025,9.638260025 0 0 0 297.552121,308.4949534 L 383.432022,222.6150524 Z"
       id="path4984" />
    <path
       style="opacity:1;fill:url(#linearGradient4992);fill-opacity:1;stroke:none;stroke-width:15;stroke-linecap:round;stroke-linejoin:round;stroke-miterlimit:4;stroke-dasharray:none;stroke-dashoffset:0;stroke-opacity:1"
       d="M 619.9943875,459.177418 A 9.638260025,9.638260025 0 0 0 628.4673814,475.4871989 C 658.4111867,470.2573325 690.2868416,479.0578216 713.3463885,502.1173685 750.947974,539.7189539 750.9479743,600.8077338 713.3463885,638.4093197 675.744803,676.0109052 614.6560227,676.0109052 577.0544372,638.4093197 553.9948904,615.3497728 545.1944017,583.4741177 550.4242677,553.5303126 A 9.638260025,9.638260025 0 0 0 534.1144866,545.0573189 L 619.9943875,459.177418 Z"
       id="path4986" />
  </g>
</svg>
